# xmcd CD database file
# Copyright (C) 1997 Ti Kan
# 
# Track frame offsets:
#     182
#     10112
#     19377
#     29257
#     39185
#     47527
#     55830
#     65385
#     76970
#     87055
#     98202
#     110717
#     120430
#     130755
#     141317
#     150132
#     162690
#     174125
#     184690
#     195420
#     205890
# 
# Disc length: 2868 seconds
# 
# Revision: 1
# Processed by: cddbd v1.4b41PL1 Copyright (c) Steve Scherf et al.
# Submitted via: DiscPlay 4.0.4
# 
DISCID=040b3215
DTITLE=Roger Miller - The Best Of Roger Miller Volume One - Country Tunesmit
DYEAR=1900
DGENRE=
TTITLE0=My Pillow
TTITLE1=Can't Stop Lovin' You
TTITLE2=You're Forgetting Me
TTITLE3=Tall Tall Trees
TTITLE4=Nothing Can Stop My Love
TTITLE5=That's The Way I Feel
TTITLE6=My Ears Should Burn (When Fools Are Talked About)
TTITLE7=Invitation To The Blues
TTITLE8=I'll Pick Up My Heart And Go Home
TTITLE9=When A House (Is Not A Home)
TTITLE10=Half A Mind
TTITLE11=When Two Worlds Collide
TTITLE12=A World I Can't Live In
TTITLE13=A World So Full Of Love
TTITLE14=Don't We All Have The Right
TTITLE15=The Last Word In Lonesome Is Me
TTITLE16=A Million Years Or So
TTITLE17=Less And Less
TTITLE18=Husbands And Wives
TTITLE19=Train Of Love
TTITLE20=Old Toy Trains
EXTD=
EXTT0=
EXTT1=
EXTT2=
EXTT3=
EXTT4=
EXTT5=
EXTT6=
EXTT7=
EXTT8=
EXTT9=
EXTT10=
EXTT11=
EXTT12=
EXTT13=
EXTT14=
EXTT15=
EXTT16=
EXTT17=
EXTT18=
EXTT19=
EXTT20=
PLAYORDER=
